# xmcd
#
# Track frame offsets: 
#        182
#        17432
#        31255
#        42735
#        53430
#        65157
#        77927
#        93150
#        105715
#        120670
#        136950
#        149232
#        166685
#        178677
#        192285
#        205830
#        221820
#        235152
#        252122
#        264712
#        276897
#        294735
#        317287
#        331860
#
# Disc length: 4626 seconds
#
# Revision: 4
# Processed by: cddbd v1.5.2PL0 Copyright (c) Steve Scherf et al.
# Submitted via: ExactAudioCopyFreeDBPlugin 1.0
#
DISCID=64121018
DTITLE=Various Artist - Deep(er) in the Philly Groove:  Volumes 1 and 2
DTITLE=[Kent Soul]
DYEAR=1994
DGENRE=Soul
TTITLE0=The Delfonics - La-La Means I Love You
TTITLE1=Billy Bass - I Need Your Love So Bad
TTITLE2=The Coupe de Villes - So Long, Goodbye, It's Over
TTITLE3=The Coupe de Villes - When Times Are Bad
TTITLE4=The Coupe de Villes - Goodbye Pain
TTITLE5=The Coupe de Villes - Face the Future
TTITLE6=The Delfonics - Didn't I (Blow Your Mind This Time)
TTITLE7=Ben Aiken - One and One is Five
TTITLE8=Ben Aiken - When the Bottom Falls Out
TTITLE9=Ben Aiken - Follow the Lamb
TTITLE10=Ben Aiken - Not Goin' to Let You (Talk to Me That Way)
TTITLE11=Broadway Express - Didn't We Make It
TTITLE12=Broadway Express - Puff Puff, You're Gone
TTITLE13=Nat Turner - Ruby Lee
TTITLE14=Nat Turner - You Are My Sun Sign, Part 1
TTITLE15=Ben Aiken - Handle with Care
TTITLE16=Ben Aiken - I Want to Be Your Lover
TTITLE17=First Choice - The Player
TTITLE18=First Choice - Armed and Extremely Dangerous
TTITLE19=First Choice - Smarty Pants
TTITLE20=Nat Turner - Handle with Care
TTITLE21=The Philly Groove Orchestra - The Delfonics Theme (How Could 
TTITLE21=You)
TTITLE22=Nat Turner - Can't Go on Living
TTITLE23=The Philly Groove Orchestra - When the Bottom Falls Out
EXTD=
EXTT0=
EXTT1=
EXTT2=
EXTT3=
EXTT4=
EXTT5=
EXTT6=
EXTT7=
EXTT8=
EXTT9=
EXTT10=
EXTT11=
EXTT12=
EXTT13=
EXTT14=
EXTT15=
EXTT16=
EXTT17=
EXTT18=
EXTT19=
EXTT20=
EXTT21=
EXTT22=
EXTT23=
PLAYORDER=
